<mxfile host="app.diagrams.net" agent="Mozilla/5.0 (Windows NT 10.0; Win64; x64) AppleWebKit/537.36 (KHTML, like Gecko) Chrome/129.0.0.0 Safari/537.36" version="24.8.3" pages="2">
  <diagram name="Page-1" id="ITcQgpq4r0XedkXjOUGM">
    <mxGraphModel dx="1114" dy="566" grid="1" gridSize="10" guides="1" tooltips="1" connect="1" arrows="1" fold="1" page="1" pageScale="1" pageWidth="827" pageHeight="1169" math="0" shadow="0">
      <root>
        <object label="" id="0">
          <mxCell />
        </object>
        <mxCell id="1" parent="0" />
        <mxCell id="kzcDSmeWw7rWdi-7lWra-1" value="PATIENT" style="shape=table;startSize=25;container=1;collapsible=0;childLayout=tableLayout;fixedRows=1;rowLines=1;fontStyle=1;align=center;resizeLast=1;" vertex="1" parent="1">
          <mxGeometry x="525" y="20" width="133" height="135" as="geometry" />
        </mxCell>
        <mxCell id="kzcDSmeWw7rWdi-7lWra-2" style="shape=tableRow;horizontal=0;startSize=0;swimlaneHead=0;swimlaneBody=0;fillColor=none;collapsible=0;dropTarget=0;points=[[0,0.5],[1,0.5]];portConstraint=eastwest;top=0;left=0;right=0;bottom=0;" vertex="1" parent="kzcDSmeWw7rWdi-7lWra-1">
          <mxGeometry y="25" width="133" height="22" as="geometry" />
        </mxCell>
        <mxCell id="kzcDSmeWw7rWdi-7lWra-3" value="int" style="shape=partialRectangle;connectable=0;fillColor=none;top=0;left=0;bottom=0;right=0;align=left;spacingLeft=2;overflow=hidden;fontSize=11;" vertex="1" parent="kzcDSmeWw7rWdi-7lWra-2">
          <mxGeometry width="36" height="22" as="geometry">
            <mxRectangle width="36" height="22" as="alternateBounds" />
          </mxGeometry>
        </mxCell>
        <mxCell id="kzcDSmeWw7rWdi-7lWra-4" value="Patient_ID" style="shape=partialRectangle;connectable=0;fillColor=none;top=0;left=0;bottom=0;right=0;align=left;spacingLeft=2;overflow=hidden;fontSize=11;" vertex="1" parent="kzcDSmeWw7rWdi-7lWra-2">
          <mxGeometry x="36" width="97" height="22" as="geometry">
            <mxRectangle width="97" height="22" as="alternateBounds" />
          </mxGeometry>
        </mxCell>
        <mxCell id="kzcDSmeWw7rWdi-7lWra-5" style="shape=tableRow;horizontal=0;startSize=0;swimlaneHead=0;swimlaneBody=0;fillColor=none;collapsible=0;dropTarget=0;points=[[0,0.5],[1,0.5]];portConstraint=eastwest;top=0;left=0;right=0;bottom=0;" vertex="1" parent="kzcDSmeWw7rWdi-7lWra-1">
          <mxGeometry y="47" width="133" height="22" as="geometry" />
        </mxCell>
        <mxCell id="kzcDSmeWw7rWdi-7lWra-6" value="string" style="shape=partialRectangle;connectable=0;fillColor=none;top=0;left=0;bottom=0;right=0;align=left;spacingLeft=2;overflow=hidden;fontSize=11;" vertex="1" parent="kzcDSmeWw7rWdi-7lWra-5">
          <mxGeometry width="36" height="22" as="geometry">
            <mxRectangle width="36" height="22" as="alternateBounds" />
          </mxGeometry>
        </mxCell>
        <mxCell id="kzcDSmeWw7rWdi-7lWra-7" value="Name" style="shape=partialRectangle;connectable=0;fillColor=none;top=0;left=0;bottom=0;right=0;align=left;spacingLeft=2;overflow=hidden;fontSize=11;" vertex="1" parent="kzcDSmeWw7rWdi-7lWra-5">
          <mxGeometry x="36" width="97" height="22" as="geometry">
            <mxRectangle width="97" height="22" as="alternateBounds" />
          </mxGeometry>
        </mxCell>
        <mxCell id="kzcDSmeWw7rWdi-7lWra-8" style="shape=tableRow;horizontal=0;startSize=0;swimlaneHead=0;swimlaneBody=0;fillColor=none;collapsible=0;dropTarget=0;points=[[0,0.5],[1,0.5]];portConstraint=eastwest;top=0;left=0;right=0;bottom=0;" vertex="1" parent="kzcDSmeWw7rWdi-7lWra-1">
          <mxGeometry y="69" width="133" height="22" as="geometry" />
        </mxCell>
        <mxCell id="kzcDSmeWw7rWdi-7lWra-9" value="date" style="shape=partialRectangle;connectable=0;fillColor=none;top=0;left=0;bottom=0;right=0;align=left;spacingLeft=2;overflow=hidden;fontSize=11;" vertex="1" parent="kzcDSmeWw7rWdi-7lWra-8">
          <mxGeometry width="36" height="22" as="geometry">
            <mxRectangle width="36" height="22" as="alternateBounds" />
          </mxGeometry>
        </mxCell>
        <mxCell id="kzcDSmeWw7rWdi-7lWra-10" value="Date_of_Birth" style="shape=partialRectangle;connectable=0;fillColor=none;top=0;left=0;bottom=0;right=0;align=left;spacingLeft=2;overflow=hidden;fontSize=11;" vertex="1" parent="kzcDSmeWw7rWdi-7lWra-8">
          <mxGeometry x="36" width="97" height="22" as="geometry">
            <mxRectangle width="97" height="22" as="alternateBounds" />
          </mxGeometry>
        </mxCell>
        <mxCell id="kzcDSmeWw7rWdi-7lWra-11" style="shape=tableRow;horizontal=0;startSize=0;swimlaneHead=0;swimlaneBody=0;fillColor=none;collapsible=0;dropTarget=0;points=[[0,0.5],[1,0.5]];portConstraint=eastwest;top=0;left=0;right=0;bottom=0;" vertex="1" parent="kzcDSmeWw7rWdi-7lWra-1">
          <mxGeometry y="91" width="133" height="22" as="geometry" />
        </mxCell>
        <mxCell id="kzcDSmeWw7rWdi-7lWra-12" value="string" style="shape=partialRectangle;connectable=0;fillColor=none;top=0;left=0;bottom=0;right=0;align=left;spacingLeft=2;overflow=hidden;fontSize=11;" vertex="1" parent="kzcDSmeWw7rWdi-7lWra-11">
          <mxGeometry width="36" height="22" as="geometry">
            <mxRectangle width="36" height="22" as="alternateBounds" />
          </mxGeometry>
        </mxCell>
        <mxCell id="kzcDSmeWw7rWdi-7lWra-13" value="Contact_No" style="shape=partialRectangle;connectable=0;fillColor=none;top=0;left=0;bottom=0;right=0;align=left;spacingLeft=2;overflow=hidden;fontSize=11;" vertex="1" parent="kzcDSmeWw7rWdi-7lWra-11">
          <mxGeometry x="36" width="97" height="22" as="geometry">
            <mxRectangle width="97" height="22" as="alternateBounds" />
          </mxGeometry>
        </mxCell>
        <mxCell id="kzcDSmeWw7rWdi-7lWra-14" style="shape=tableRow;horizontal=0;startSize=0;swimlaneHead=0;swimlaneBody=0;fillColor=none;collapsible=0;dropTarget=0;points=[[0,0.5],[1,0.5]];portConstraint=eastwest;top=0;left=0;right=0;bottom=0;" vertex="1" parent="kzcDSmeWw7rWdi-7lWra-1">
          <mxGeometry y="113" width="133" height="22" as="geometry" />
        </mxCell>
        <mxCell id="kzcDSmeWw7rWdi-7lWra-15" value="string" style="shape=partialRectangle;connectable=0;fillColor=none;top=0;left=0;bottom=0;right=0;align=left;spacingLeft=2;overflow=hidden;fontSize=11;" vertex="1" parent="kzcDSmeWw7rWdi-7lWra-14">
          <mxGeometry width="36" height="22" as="geometry">
            <mxRectangle width="36" height="22" as="alternateBounds" />
          </mxGeometry>
        </mxCell>
        <mxCell id="kzcDSmeWw7rWdi-7lWra-16" value="Address" style="shape=partialRectangle;connectable=0;fillColor=none;top=0;left=0;bottom=0;right=0;align=left;spacingLeft=2;overflow=hidden;fontSize=11;" vertex="1" parent="kzcDSmeWw7rWdi-7lWra-14">
          <mxGeometry x="36" width="97" height="22" as="geometry">
            <mxRectangle width="97" height="22" as="alternateBounds" />
          </mxGeometry>
        </mxCell>
        <mxCell id="kzcDSmeWw7rWdi-7lWra-17" value="DOCTOR" style="shape=table;startSize=25;container=1;collapsible=0;childLayout=tableLayout;fixedRows=1;rowLines=1;fontStyle=1;align=center;resizeLast=1;" vertex="1" parent="1">
          <mxGeometry x="749" y="488" width="123" height="113" as="geometry" />
        </mxCell>
        <mxCell id="kzcDSmeWw7rWdi-7lWra-18" style="shape=tableRow;horizontal=0;startSize=0;swimlaneHead=0;swimlaneBody=0;fillColor=none;collapsible=0;dropTarget=0;points=[[0,0.5],[1,0.5]];portConstraint=eastwest;top=0;left=0;right=0;bottom=0;" vertex="1" parent="kzcDSmeWw7rWdi-7lWra-17">
          <mxGeometry y="25" width="123" height="22" as="geometry" />
        </mxCell>
        <mxCell id="kzcDSmeWw7rWdi-7lWra-19" value="int" style="shape=partialRectangle;connectable=0;fillColor=none;top=0;left=0;bottom=0;right=0;align=left;spacingLeft=2;overflow=hidden;fontSize=11;" vertex="1" parent="kzcDSmeWw7rWdi-7lWra-18">
          <mxGeometry width="36" height="22" as="geometry">
            <mxRectangle width="36" height="22" as="alternateBounds" />
          </mxGeometry>
        </mxCell>
        <mxCell id="kzcDSmeWw7rWdi-7lWra-20" value="Doctor_ID" style="shape=partialRectangle;connectable=0;fillColor=none;top=0;left=0;bottom=0;right=0;align=left;spacingLeft=2;overflow=hidden;fontSize=11;" vertex="1" parent="kzcDSmeWw7rWdi-7lWra-18">
          <mxGeometry x="36" width="87" height="22" as="geometry">
            <mxRectangle width="87" height="22" as="alternateBounds" />
          </mxGeometry>
        </mxCell>
        <mxCell id="kzcDSmeWw7rWdi-7lWra-21" style="shape=tableRow;horizontal=0;startSize=0;swimlaneHead=0;swimlaneBody=0;fillColor=none;collapsible=0;dropTarget=0;points=[[0,0.5],[1,0.5]];portConstraint=eastwest;top=0;left=0;right=0;bottom=0;" vertex="1" parent="kzcDSmeWw7rWdi-7lWra-17">
          <mxGeometry y="47" width="123" height="22" as="geometry" />
        </mxCell>
        <mxCell id="kzcDSmeWw7rWdi-7lWra-22" value="string" style="shape=partialRectangle;connectable=0;fillColor=none;top=0;left=0;bottom=0;right=0;align=left;spacingLeft=2;overflow=hidden;fontSize=11;" vertex="1" parent="kzcDSmeWw7rWdi-7lWra-21">
          <mxGeometry width="36" height="22" as="geometry">
            <mxRectangle width="36" height="22" as="alternateBounds" />
          </mxGeometry>
        </mxCell>
        <mxCell id="kzcDSmeWw7rWdi-7lWra-23" value="Name" style="shape=partialRectangle;connectable=0;fillColor=none;top=0;left=0;bottom=0;right=0;align=left;spacingLeft=2;overflow=hidden;fontSize=11;" vertex="1" parent="kzcDSmeWw7rWdi-7lWra-21">
          <mxGeometry x="36" width="87" height="22" as="geometry">
            <mxRectangle width="87" height="22" as="alternateBounds" />
          </mxGeometry>
        </mxCell>
        <mxCell id="kzcDSmeWw7rWdi-7lWra-24" style="shape=tableRow;horizontal=0;startSize=0;swimlaneHead=0;swimlaneBody=0;fillColor=none;collapsible=0;dropTarget=0;points=[[0,0.5],[1,0.5]];portConstraint=eastwest;top=0;left=0;right=0;bottom=0;" vertex="1" parent="kzcDSmeWw7rWdi-7lWra-17">
          <mxGeometry y="69" width="123" height="22" as="geometry" />
        </mxCell>
        <mxCell id="kzcDSmeWw7rWdi-7lWra-25" value="string" style="shape=partialRectangle;connectable=0;fillColor=none;top=0;left=0;bottom=0;right=0;align=left;spacingLeft=2;overflow=hidden;fontSize=11;" vertex="1" parent="kzcDSmeWw7rWdi-7lWra-24">
          <mxGeometry width="36" height="22" as="geometry">
            <mxRectangle width="36" height="22" as="alternateBounds" />
          </mxGeometry>
        </mxCell>
        <mxCell id="kzcDSmeWw7rWdi-7lWra-26" value="Specialty" style="shape=partialRectangle;connectable=0;fillColor=none;top=0;left=0;bottom=0;right=0;align=left;spacingLeft=2;overflow=hidden;fontSize=11;" vertex="1" parent="kzcDSmeWw7rWdi-7lWra-24">
          <mxGeometry x="36" width="87" height="22" as="geometry">
            <mxRectangle width="87" height="22" as="alternateBounds" />
          </mxGeometry>
        </mxCell>
        <mxCell id="kzcDSmeWw7rWdi-7lWra-27" style="shape=tableRow;horizontal=0;startSize=0;swimlaneHead=0;swimlaneBody=0;fillColor=none;collapsible=0;dropTarget=0;points=[[0,0.5],[1,0.5]];portConstraint=eastwest;top=0;left=0;right=0;bottom=0;" vertex="1" parent="kzcDSmeWw7rWdi-7lWra-17">
          <mxGeometry y="91" width="123" height="22" as="geometry" />
        </mxCell>
        <mxCell id="kzcDSmeWw7rWdi-7lWra-28" value="string" style="shape=partialRectangle;connectable=0;fillColor=none;top=0;left=0;bottom=0;right=0;align=left;spacingLeft=2;overflow=hidden;fontSize=11;" vertex="1" parent="kzcDSmeWw7rWdi-7lWra-27">
          <mxGeometry width="36" height="22" as="geometry">
            <mxRectangle width="36" height="22" as="alternateBounds" />
          </mxGeometry>
        </mxCell>
        <mxCell id="kzcDSmeWw7rWdi-7lWra-29" value="Contact_No" style="shape=partialRectangle;connectable=0;fillColor=none;top=0;left=0;bottom=0;right=0;align=left;spacingLeft=2;overflow=hidden;fontSize=11;" vertex="1" parent="kzcDSmeWw7rWdi-7lWra-27">
          <mxGeometry x="36" width="87" height="22" as="geometry">
            <mxRectangle width="87" height="22" as="alternateBounds" />
          </mxGeometry>
        </mxCell>
        <mxCell id="kzcDSmeWw7rWdi-7lWra-30" value="NURSE" style="shape=table;startSize=25;container=1;collapsible=0;childLayout=tableLayout;fixedRows=1;rowLines=1;fontStyle=1;align=center;resizeLast=1;" vertex="1" parent="1">
          <mxGeometry x="302" y="42" width="123" height="91" as="geometry" />
        </mxCell>
        <mxCell id="kzcDSmeWw7rWdi-7lWra-31" style="shape=tableRow;horizontal=0;startSize=0;swimlaneHead=0;swimlaneBody=0;fillColor=none;collapsible=0;dropTarget=0;points=[[0,0.5],[1,0.5]];portConstraint=eastwest;top=0;left=0;right=0;bottom=0;" vertex="1" parent="kzcDSmeWw7rWdi-7lWra-30">
          <mxGeometry y="25" width="123" height="22" as="geometry" />
        </mxCell>
        <mxCell id="kzcDSmeWw7rWdi-7lWra-32" value="int" style="shape=partialRectangle;connectable=0;fillColor=none;top=0;left=0;bottom=0;right=0;align=left;spacingLeft=2;overflow=hidden;fontSize=11;" vertex="1" parent="kzcDSmeWw7rWdi-7lWra-31">
          <mxGeometry width="36" height="22" as="geometry">
            <mxRectangle width="36" height="22" as="alternateBounds" />
          </mxGeometry>
        </mxCell>
        <mxCell id="kzcDSmeWw7rWdi-7lWra-33" value="Nurse_ID" style="shape=partialRectangle;connectable=0;fillColor=none;top=0;left=0;bottom=0;right=0;align=left;spacingLeft=2;overflow=hidden;fontSize=11;" vertex="1" parent="kzcDSmeWw7rWdi-7lWra-31">
          <mxGeometry x="36" width="87" height="22" as="geometry">
            <mxRectangle width="87" height="22" as="alternateBounds" />
          </mxGeometry>
        </mxCell>
        <mxCell id="kzcDSmeWw7rWdi-7lWra-34" style="shape=tableRow;horizontal=0;startSize=0;swimlaneHead=0;swimlaneBody=0;fillColor=none;collapsible=0;dropTarget=0;points=[[0,0.5],[1,0.5]];portConstraint=eastwest;top=0;left=0;right=0;bottom=0;" vertex="1" parent="kzcDSmeWw7rWdi-7lWra-30">
          <mxGeometry y="47" width="123" height="22" as="geometry" />
        </mxCell>
        <mxCell id="kzcDSmeWw7rWdi-7lWra-35" value="string" style="shape=partialRectangle;connectable=0;fillColor=none;top=0;left=0;bottom=0;right=0;align=left;spacingLeft=2;overflow=hidden;fontSize=11;" vertex="1" parent="kzcDSmeWw7rWdi-7lWra-34">
          <mxGeometry width="36" height="22" as="geometry">
            <mxRectangle width="36" height="22" as="alternateBounds" />
          </mxGeometry>
        </mxCell>
        <mxCell id="kzcDSmeWw7rWdi-7lWra-36" value="Name" style="shape=partialRectangle;connectable=0;fillColor=none;top=0;left=0;bottom=0;right=0;align=left;spacingLeft=2;overflow=hidden;fontSize=11;" vertex="1" parent="kzcDSmeWw7rWdi-7lWra-34">
          <mxGeometry x="36" width="87" height="22" as="geometry">
            <mxRectangle width="87" height="22" as="alternateBounds" />
          </mxGeometry>
        </mxCell>
        <mxCell id="kzcDSmeWw7rWdi-7lWra-37" style="shape=tableRow;horizontal=0;startSize=0;swimlaneHead=0;swimlaneBody=0;fillColor=none;collapsible=0;dropTarget=0;points=[[0,0.5],[1,0.5]];portConstraint=eastwest;top=0;left=0;right=0;bottom=0;" vertex="1" parent="kzcDSmeWw7rWdi-7lWra-30">
          <mxGeometry y="69" width="123" height="22" as="geometry" />
        </mxCell>
        <mxCell id="kzcDSmeWw7rWdi-7lWra-38" value="string" style="shape=partialRectangle;connectable=0;fillColor=none;top=0;left=0;bottom=0;right=0;align=left;spacingLeft=2;overflow=hidden;fontSize=11;" vertex="1" parent="kzcDSmeWw7rWdi-7lWra-37">
          <mxGeometry width="36" height="22" as="geometry">
            <mxRectangle width="36" height="22" as="alternateBounds" />
          </mxGeometry>
        </mxCell>
        <mxCell id="kzcDSmeWw7rWdi-7lWra-39" value="Contact_No" style="shape=partialRectangle;connectable=0;fillColor=none;top=0;left=0;bottom=0;right=0;align=left;spacingLeft=2;overflow=hidden;fontSize=11;" vertex="1" parent="kzcDSmeWw7rWdi-7lWra-37">
          <mxGeometry x="36" width="87" height="22" as="geometry">
            <mxRectangle width="87" height="22" as="alternateBounds" />
          </mxGeometry>
        </mxCell>
        <mxCell id="kzcDSmeWw7rWdi-7lWra-40" value="APPOINTMENT" style="shape=table;startSize=25;container=1;collapsible=0;childLayout=tableLayout;fixedRows=1;rowLines=1;fontStyle=1;align=center;resizeLast=1;" vertex="1" parent="1">
          <mxGeometry x="741" y="254" width="139" height="135" as="geometry" />
        </mxCell>
        <mxCell id="kzcDSmeWw7rWdi-7lWra-41" style="shape=tableRow;horizontal=0;startSize=0;swimlaneHead=0;swimlaneBody=0;fillColor=none;collapsible=0;dropTarget=0;points=[[0,0.5],[1,0.5]];portConstraint=eastwest;top=0;left=0;right=0;bottom=0;" vertex="1" parent="kzcDSmeWw7rWdi-7lWra-40">
          <mxGeometry y="25" width="139" height="22" as="geometry" />
        </mxCell>
        <mxCell id="kzcDSmeWw7rWdi-7lWra-42" value="int" style="shape=partialRectangle;connectable=0;fillColor=none;top=0;left=0;bottom=0;right=0;align=left;spacingLeft=2;overflow=hidden;fontSize=11;" vertex="1" parent="kzcDSmeWw7rWdi-7lWra-41">
          <mxGeometry width="24" height="22" as="geometry">
            <mxRectangle width="24" height="22" as="alternateBounds" />
          </mxGeometry>
        </mxCell>
        <mxCell id="kzcDSmeWw7rWdi-7lWra-43" value="Appointment_ID" style="shape=partialRectangle;connectable=0;fillColor=none;top=0;left=0;bottom=0;right=0;align=left;spacingLeft=2;overflow=hidden;fontSize=11;" vertex="1" parent="kzcDSmeWw7rWdi-7lWra-41">
          <mxGeometry x="24" width="115" height="22" as="geometry">
            <mxRectangle width="115" height="22" as="alternateBounds" />
          </mxGeometry>
        </mxCell>
        <mxCell id="kzcDSmeWw7rWdi-7lWra-44" style="shape=tableRow;horizontal=0;startSize=0;swimlaneHead=0;swimlaneBody=0;fillColor=none;collapsible=0;dropTarget=0;points=[[0,0.5],[1,0.5]];portConstraint=eastwest;top=0;left=0;right=0;bottom=0;" vertex="1" parent="kzcDSmeWw7rWdi-7lWra-40">
          <mxGeometry y="47" width="139" height="22" as="geometry" />
        </mxCell>
        <mxCell id="kzcDSmeWw7rWdi-7lWra-45" value="int" style="shape=partialRectangle;connectable=0;fillColor=none;top=0;left=0;bottom=0;right=0;align=left;spacingLeft=2;overflow=hidden;fontSize=11;" vertex="1" parent="kzcDSmeWw7rWdi-7lWra-44">
          <mxGeometry width="24" height="22" as="geometry">
            <mxRectangle width="24" height="22" as="alternateBounds" />
          </mxGeometry>
        </mxCell>
        <mxCell id="kzcDSmeWw7rWdi-7lWra-46" value="Patient_ID" style="shape=partialRectangle;connectable=0;fillColor=none;top=0;left=0;bottom=0;right=0;align=left;spacingLeft=2;overflow=hidden;fontSize=11;" vertex="1" parent="kzcDSmeWw7rWdi-7lWra-44">
          <mxGeometry x="24" width="115" height="22" as="geometry">
            <mxRectangle width="115" height="22" as="alternateBounds" />
          </mxGeometry>
        </mxCell>
        <mxCell id="kzcDSmeWw7rWdi-7lWra-47" style="shape=tableRow;horizontal=0;startSize=0;swimlaneHead=0;swimlaneBody=0;fillColor=none;collapsible=0;dropTarget=0;points=[[0,0.5],[1,0.5]];portConstraint=eastwest;top=0;left=0;right=0;bottom=0;" vertex="1" parent="kzcDSmeWw7rWdi-7lWra-40">
          <mxGeometry y="69" width="139" height="22" as="geometry" />
        </mxCell>
        <mxCell id="kzcDSmeWw7rWdi-7lWra-48" value="int" style="shape=partialRectangle;connectable=0;fillColor=none;top=0;left=0;bottom=0;right=0;align=left;spacingLeft=2;overflow=hidden;fontSize=11;" vertex="1" parent="kzcDSmeWw7rWdi-7lWra-47">
          <mxGeometry width="24" height="22" as="geometry">
            <mxRectangle width="24" height="22" as="alternateBounds" />
          </mxGeometry>
        </mxCell>
        <mxCell id="kzcDSmeWw7rWdi-7lWra-49" value="Doctor_ID" style="shape=partialRectangle;connectable=0;fillColor=none;top=0;left=0;bottom=0;right=0;align=left;spacingLeft=2;overflow=hidden;fontSize=11;" vertex="1" parent="kzcDSmeWw7rWdi-7lWra-47">
          <mxGeometry x="24" width="115" height="22" as="geometry">
            <mxRectangle width="115" height="22" as="alternateBounds" />
          </mxGeometry>
        </mxCell>
        <mxCell id="kzcDSmeWw7rWdi-7lWra-50" style="shape=tableRow;horizontal=0;startSize=0;swimlaneHead=0;swimlaneBody=0;fillColor=none;collapsible=0;dropTarget=0;points=[[0,0.5],[1,0.5]];portConstraint=eastwest;top=0;left=0;right=0;bottom=0;" vertex="1" parent="kzcDSmeWw7rWdi-7lWra-40">
          <mxGeometry y="91" width="139" height="22" as="geometry" />
        </mxCell>
        <mxCell id="kzcDSmeWw7rWdi-7lWra-51" value="date" style="shape=partialRectangle;connectable=0;fillColor=none;top=0;left=0;bottom=0;right=0;align=left;spacingLeft=2;overflow=hidden;fontSize=11;" vertex="1" parent="kzcDSmeWw7rWdi-7lWra-50">
          <mxGeometry width="24" height="22" as="geometry">
            <mxRectangle width="24" height="22" as="alternateBounds" />
          </mxGeometry>
        </mxCell>
        <mxCell id="kzcDSmeWw7rWdi-7lWra-52" value="Date" style="shape=partialRectangle;connectable=0;fillColor=none;top=0;left=0;bottom=0;right=0;align=left;spacingLeft=2;overflow=hidden;fontSize=11;" vertex="1" parent="kzcDSmeWw7rWdi-7lWra-50">
          <mxGeometry x="24" width="115" height="22" as="geometry">
            <mxRectangle width="115" height="22" as="alternateBounds" />
          </mxGeometry>
        </mxCell>
        <mxCell id="kzcDSmeWw7rWdi-7lWra-53" style="shape=tableRow;horizontal=0;startSize=0;swimlaneHead=0;swimlaneBody=0;fillColor=none;collapsible=0;dropTarget=0;points=[[0,0.5],[1,0.5]];portConstraint=eastwest;top=0;left=0;right=0;bottom=0;" vertex="1" parent="kzcDSmeWw7rWdi-7lWra-40">
          <mxGeometry y="113" width="139" height="22" as="geometry" />
        </mxCell>
        <mxCell id="kzcDSmeWw7rWdi-7lWra-54" value="time" style="shape=partialRectangle;connectable=0;fillColor=none;top=0;left=0;bottom=0;right=0;align=left;spacingLeft=2;overflow=hidden;fontSize=11;" vertex="1" parent="kzcDSmeWw7rWdi-7lWra-53">
          <mxGeometry width="24" height="22" as="geometry">
            <mxRectangle width="24" height="22" as="alternateBounds" />
          </mxGeometry>
        </mxCell>
        <mxCell id="kzcDSmeWw7rWdi-7lWra-55" value="Time" style="shape=partialRectangle;connectable=0;fillColor=none;top=0;left=0;bottom=0;right=0;align=left;spacingLeft=2;overflow=hidden;fontSize=11;" vertex="1" parent="kzcDSmeWw7rWdi-7lWra-53">
          <mxGeometry x="24" width="115" height="22" as="geometry">
            <mxRectangle width="115" height="22" as="alternateBounds" />
          </mxGeometry>
        </mxCell>
        <mxCell id="kzcDSmeWw7rWdi-7lWra-56" value="DEPARTMENT" style="shape=table;startSize=25;container=1;collapsible=0;childLayout=tableLayout;fixedRows=1;rowLines=1;fontStyle=1;align=center;resizeLast=1;" vertex="1" parent="1">
          <mxGeometry x="63" y="53" width="139" height="69" as="geometry" />
        </mxCell>
        <mxCell id="kzcDSmeWw7rWdi-7lWra-57" style="shape=tableRow;horizontal=0;startSize=0;swimlaneHead=0;swimlaneBody=0;fillColor=none;collapsible=0;dropTarget=0;points=[[0,0.5],[1,0.5]];portConstraint=eastwest;top=0;left=0;right=0;bottom=0;" vertex="1" parent="kzcDSmeWw7rWdi-7lWra-56">
          <mxGeometry y="25" width="139" height="22" as="geometry" />
        </mxCell>
        <mxCell id="kzcDSmeWw7rWdi-7lWra-58" value="int" style="shape=partialRectangle;connectable=0;fillColor=none;top=0;left=0;bottom=0;right=0;align=left;spacingLeft=2;overflow=hidden;fontSize=11;" vertex="1" parent="kzcDSmeWw7rWdi-7lWra-57">
          <mxGeometry width="36" height="22" as="geometry">
            <mxRectangle width="36" height="22" as="alternateBounds" />
          </mxGeometry>
        </mxCell>
        <mxCell id="kzcDSmeWw7rWdi-7lWra-59" value="Department_ID" style="shape=partialRectangle;connectable=0;fillColor=none;top=0;left=0;bottom=0;right=0;align=left;spacingLeft=2;overflow=hidden;fontSize=11;" vertex="1" parent="kzcDSmeWw7rWdi-7lWra-57">
          <mxGeometry x="36" width="103" height="22" as="geometry">
            <mxRectangle width="103" height="22" as="alternateBounds" />
          </mxGeometry>
        </mxCell>
        <mxCell id="kzcDSmeWw7rWdi-7lWra-60" style="shape=tableRow;horizontal=0;startSize=0;swimlaneHead=0;swimlaneBody=0;fillColor=none;collapsible=0;dropTarget=0;points=[[0,0.5],[1,0.5]];portConstraint=eastwest;top=0;left=0;right=0;bottom=0;" vertex="1" parent="kzcDSmeWw7rWdi-7lWra-56">
          <mxGeometry y="47" width="139" height="22" as="geometry" />
        </mxCell>
        <mxCell id="kzcDSmeWw7rWdi-7lWra-61" value="string" style="shape=partialRectangle;connectable=0;fillColor=none;top=0;left=0;bottom=0;right=0;align=left;spacingLeft=2;overflow=hidden;fontSize=11;" vertex="1" parent="kzcDSmeWw7rWdi-7lWra-60">
          <mxGeometry width="36" height="22" as="geometry">
            <mxRectangle width="36" height="22" as="alternateBounds" />
          </mxGeometry>
        </mxCell>
        <mxCell id="kzcDSmeWw7rWdi-7lWra-62" value="Name" style="shape=partialRectangle;connectable=0;fillColor=none;top=0;left=0;bottom=0;right=0;align=left;spacingLeft=2;overflow=hidden;fontSize=11;" vertex="1" parent="kzcDSmeWw7rWdi-7lWra-60">
          <mxGeometry x="36" width="103" height="22" as="geometry">
            <mxRectangle width="103" height="22" as="alternateBounds" />
          </mxGeometry>
        </mxCell>
        <mxCell id="kzcDSmeWw7rWdi-7lWra-63" value="ROOM" style="shape=table;startSize=25;container=1;collapsible=0;childLayout=tableLayout;fixedRows=1;rowLines=1;fontStyle=1;align=center;resizeLast=1;" vertex="1" parent="1">
          <mxGeometry x="156" y="276" width="139" height="91" as="geometry" />
        </mxCell>
        <mxCell id="kzcDSmeWw7rWdi-7lWra-64" style="shape=tableRow;horizontal=0;startSize=0;swimlaneHead=0;swimlaneBody=0;fillColor=none;collapsible=0;dropTarget=0;points=[[0,0.5],[1,0.5]];portConstraint=eastwest;top=0;left=0;right=0;bottom=0;" vertex="1" parent="kzcDSmeWw7rWdi-7lWra-63">
          <mxGeometry y="25" width="139" height="22" as="geometry" />
        </mxCell>
        <mxCell id="kzcDSmeWw7rWdi-7lWra-65" value="int" style="shape=partialRectangle;connectable=0;fillColor=none;top=0;left=0;bottom=0;right=0;align=left;spacingLeft=2;overflow=hidden;fontSize=11;" vertex="1" parent="kzcDSmeWw7rWdi-7lWra-64">
          <mxGeometry width="36" height="22" as="geometry">
            <mxRectangle width="36" height="22" as="alternateBounds" />
          </mxGeometry>
        </mxCell>
        <mxCell id="kzcDSmeWw7rWdi-7lWra-66" value="Room_ID" style="shape=partialRectangle;connectable=0;fillColor=none;top=0;left=0;bottom=0;right=0;align=left;spacingLeft=2;overflow=hidden;fontSize=11;" vertex="1" parent="kzcDSmeWw7rWdi-7lWra-64">
          <mxGeometry x="36" width="103" height="22" as="geometry">
            <mxRectangle width="103" height="22" as="alternateBounds" />
          </mxGeometry>
        </mxCell>
        <mxCell id="kzcDSmeWw7rWdi-7lWra-67" style="shape=tableRow;horizontal=0;startSize=0;swimlaneHead=0;swimlaneBody=0;fillColor=none;collapsible=0;dropTarget=0;points=[[0,0.5],[1,0.5]];portConstraint=eastwest;top=0;left=0;right=0;bottom=0;" vertex="1" parent="kzcDSmeWw7rWdi-7lWra-63">
          <mxGeometry y="47" width="139" height="22" as="geometry" />
        </mxCell>
        <mxCell id="kzcDSmeWw7rWdi-7lWra-68" value="int" style="shape=partialRectangle;connectable=0;fillColor=none;top=0;left=0;bottom=0;right=0;align=left;spacingLeft=2;overflow=hidden;fontSize=11;" vertex="1" parent="kzcDSmeWw7rWdi-7lWra-67">
          <mxGeometry width="36" height="22" as="geometry">
            <mxRectangle width="36" height="22" as="alternateBounds" />
          </mxGeometry>
        </mxCell>
        <mxCell id="kzcDSmeWw7rWdi-7lWra-69" value="Department_ID" style="shape=partialRectangle;connectable=0;fillColor=none;top=0;left=0;bottom=0;right=0;align=left;spacingLeft=2;overflow=hidden;fontSize=11;" vertex="1" parent="kzcDSmeWw7rWdi-7lWra-67">
          <mxGeometry x="36" width="103" height="22" as="geometry">
            <mxRectangle width="103" height="22" as="alternateBounds" />
          </mxGeometry>
        </mxCell>
        <mxCell id="kzcDSmeWw7rWdi-7lWra-70" style="shape=tableRow;horizontal=0;startSize=0;swimlaneHead=0;swimlaneBody=0;fillColor=none;collapsible=0;dropTarget=0;points=[[0,0.5],[1,0.5]];portConstraint=eastwest;top=0;left=0;right=0;bottom=0;" vertex="1" parent="kzcDSmeWw7rWdi-7lWra-63">
          <mxGeometry y="69" width="139" height="22" as="geometry" />
        </mxCell>
        <mxCell id="kzcDSmeWw7rWdi-7lWra-71" value="string" style="shape=partialRectangle;connectable=0;fillColor=none;top=0;left=0;bottom=0;right=0;align=left;spacingLeft=2;overflow=hidden;fontSize=11;" vertex="1" parent="kzcDSmeWw7rWdi-7lWra-70">
          <mxGeometry width="36" height="22" as="geometry">
            <mxRectangle width="36" height="22" as="alternateBounds" />
          </mxGeometry>
        </mxCell>
        <mxCell id="kzcDSmeWw7rWdi-7lWra-72" value="Room_Type" style="shape=partialRectangle;connectable=0;fillColor=none;top=0;left=0;bottom=0;right=0;align=left;spacingLeft=2;overflow=hidden;fontSize=11;" vertex="1" parent="kzcDSmeWw7rWdi-7lWra-70">
          <mxGeometry x="36" width="103" height="22" as="geometry">
            <mxRectangle width="103" height="22" as="alternateBounds" />
          </mxGeometry>
        </mxCell>
        <mxCell id="kzcDSmeWw7rWdi-7lWra-73" value="MEDICATION" style="shape=table;startSize=25;container=1;collapsible=0;childLayout=tableLayout;fixedRows=1;rowLines=1;fontStyle=1;align=center;resizeLast=1;" vertex="1" parent="1">
          <mxGeometry x="505" y="276" width="135" height="91" as="geometry" />
        </mxCell>
        <mxCell id="kzcDSmeWw7rWdi-7lWra-74" style="shape=tableRow;horizontal=0;startSize=0;swimlaneHead=0;swimlaneBody=0;fillColor=none;collapsible=0;dropTarget=0;points=[[0,0.5],[1,0.5]];portConstraint=eastwest;top=0;left=0;right=0;bottom=0;" vertex="1" parent="kzcDSmeWw7rWdi-7lWra-73">
          <mxGeometry y="25" width="135" height="22" as="geometry" />
        </mxCell>
        <mxCell id="kzcDSmeWw7rWdi-7lWra-75" value="int" style="shape=partialRectangle;connectable=0;fillColor=none;top=0;left=0;bottom=0;right=0;align=left;spacingLeft=2;overflow=hidden;fontSize=11;" vertex="1" parent="kzcDSmeWw7rWdi-7lWra-74">
          <mxGeometry width="36" height="22" as="geometry">
            <mxRectangle width="36" height="22" as="alternateBounds" />
          </mxGeometry>
        </mxCell>
        <mxCell id="kzcDSmeWw7rWdi-7lWra-76" value="Medication_ID" style="shape=partialRectangle;connectable=0;fillColor=none;top=0;left=0;bottom=0;right=0;align=left;spacingLeft=2;overflow=hidden;fontSize=11;" vertex="1" parent="kzcDSmeWw7rWdi-7lWra-74">
          <mxGeometry x="36" width="99" height="22" as="geometry">
            <mxRectangle width="99" height="22" as="alternateBounds" />
          </mxGeometry>
        </mxCell>
        <mxCell id="kzcDSmeWw7rWdi-7lWra-77" style="shape=tableRow;horizontal=0;startSize=0;swimlaneHead=0;swimlaneBody=0;fillColor=none;collapsible=0;dropTarget=0;points=[[0,0.5],[1,0.5]];portConstraint=eastwest;top=0;left=0;right=0;bottom=0;" vertex="1" parent="kzcDSmeWw7rWdi-7lWra-73">
          <mxGeometry y="47" width="135" height="22" as="geometry" />
        </mxCell>
        <mxCell id="kzcDSmeWw7rWdi-7lWra-78" value="string" style="shape=partialRectangle;connectable=0;fillColor=none;top=0;left=0;bottom=0;right=0;align=left;spacingLeft=2;overflow=hidden;fontSize=11;" vertex="1" parent="kzcDSmeWw7rWdi-7lWra-77">
          <mxGeometry width="36" height="22" as="geometry">
            <mxRectangle width="36" height="22" as="alternateBounds" />
          </mxGeometry>
        </mxCell>
        <mxCell id="kzcDSmeWw7rWdi-7lWra-79" value="Name" style="shape=partialRectangle;connectable=0;fillColor=none;top=0;left=0;bottom=0;right=0;align=left;spacingLeft=2;overflow=hidden;fontSize=11;" vertex="1" parent="kzcDSmeWw7rWdi-7lWra-77">
          <mxGeometry x="36" width="99" height="22" as="geometry">
            <mxRectangle width="99" height="22" as="alternateBounds" />
          </mxGeometry>
        </mxCell>
        <mxCell id="kzcDSmeWw7rWdi-7lWra-80" style="shape=tableRow;horizontal=0;startSize=0;swimlaneHead=0;swimlaneBody=0;fillColor=none;collapsible=0;dropTarget=0;points=[[0,0.5],[1,0.5]];portConstraint=eastwest;top=0;left=0;right=0;bottom=0;" vertex="1" parent="kzcDSmeWw7rWdi-7lWra-73">
          <mxGeometry y="69" width="135" height="22" as="geometry" />
        </mxCell>
        <mxCell id="kzcDSmeWw7rWdi-7lWra-81" value="string" style="shape=partialRectangle;connectable=0;fillColor=none;top=0;left=0;bottom=0;right=0;align=left;spacingLeft=2;overflow=hidden;fontSize=11;" vertex="1" parent="kzcDSmeWw7rWdi-7lWra-80">
          <mxGeometry width="36" height="22" as="geometry">
            <mxRectangle width="36" height="22" as="alternateBounds" />
          </mxGeometry>
        </mxCell>
        <mxCell id="kzcDSmeWw7rWdi-7lWra-82" value="Description" style="shape=partialRectangle;connectable=0;fillColor=none;top=0;left=0;bottom=0;right=0;align=left;spacingLeft=2;overflow=hidden;fontSize=11;" vertex="1" parent="kzcDSmeWw7rWdi-7lWra-80">
          <mxGeometry x="36" width="99" height="22" as="geometry">
            <mxRectangle width="99" height="22" as="alternateBounds" />
          </mxGeometry>
        </mxCell>
        <mxCell id="kzcDSmeWw7rWdi-7lWra-83" value="BILL" style="shape=table;startSize=25;container=1;collapsible=0;childLayout=tableLayout;fixedRows=1;rowLines=1;fontStyle=1;align=center;resizeLast=1;" vertex="1" parent="1">
          <mxGeometry x="20" y="488" width="141" height="113" as="geometry" />
        </mxCell>
        <mxCell id="kzcDSmeWw7rWdi-7lWra-84" style="shape=tableRow;horizontal=0;startSize=0;swimlaneHead=0;swimlaneBody=0;fillColor=none;collapsible=0;dropTarget=0;points=[[0,0.5],[1,0.5]];portConstraint=eastwest;top=0;left=0;right=0;bottom=0;" vertex="1" parent="kzcDSmeWw7rWdi-7lWra-83">
          <mxGeometry y="25" width="141" height="22" as="geometry" />
        </mxCell>
        <mxCell id="kzcDSmeWw7rWdi-7lWra-85" value="int" style="shape=partialRectangle;connectable=0;fillColor=none;top=0;left=0;bottom=0;right=0;align=left;spacingLeft=2;overflow=hidden;fontSize=11;" vertex="1" parent="kzcDSmeWw7rWdi-7lWra-84">
          <mxGeometry width="30" height="22" as="geometry">
            <mxRectangle width="30" height="22" as="alternateBounds" />
          </mxGeometry>
        </mxCell>
        <mxCell id="kzcDSmeWw7rWdi-7lWra-86" value="Bill_ID" style="shape=partialRectangle;connectable=0;fillColor=none;top=0;left=0;bottom=0;right=0;align=left;spacingLeft=2;overflow=hidden;fontSize=11;" vertex="1" parent="kzcDSmeWw7rWdi-7lWra-84">
          <mxGeometry x="30" width="111" height="22" as="geometry">
            <mxRectangle width="111" height="22" as="alternateBounds" />
          </mxGeometry>
        </mxCell>
        <mxCell id="kzcDSmeWw7rWdi-7lWra-87" style="shape=tableRow;horizontal=0;startSize=0;swimlaneHead=0;swimlaneBody=0;fillColor=none;collapsible=0;dropTarget=0;points=[[0,0.5],[1,0.5]];portConstraint=eastwest;top=0;left=0;right=0;bottom=0;" vertex="1" parent="kzcDSmeWw7rWdi-7lWra-83">
          <mxGeometry y="47" width="141" height="22" as="geometry" />
        </mxCell>
        <mxCell id="kzcDSmeWw7rWdi-7lWra-88" value="int" style="shape=partialRectangle;connectable=0;fillColor=none;top=0;left=0;bottom=0;right=0;align=left;spacingLeft=2;overflow=hidden;fontSize=11;" vertex="1" parent="kzcDSmeWw7rWdi-7lWra-87">
          <mxGeometry width="30" height="22" as="geometry">
            <mxRectangle width="30" height="22" as="alternateBounds" />
          </mxGeometry>
        </mxCell>
        <mxCell id="kzcDSmeWw7rWdi-7lWra-89" value="Patient_ID" style="shape=partialRectangle;connectable=0;fillColor=none;top=0;left=0;bottom=0;right=0;align=left;spacingLeft=2;overflow=hidden;fontSize=11;" vertex="1" parent="kzcDSmeWw7rWdi-7lWra-87">
          <mxGeometry x="30" width="111" height="22" as="geometry">
            <mxRectangle width="111" height="22" as="alternateBounds" />
          </mxGeometry>
        </mxCell>
        <mxCell id="kzcDSmeWw7rWdi-7lWra-90" style="shape=tableRow;horizontal=0;startSize=0;swimlaneHead=0;swimlaneBody=0;fillColor=none;collapsible=0;dropTarget=0;points=[[0,0.5],[1,0.5]];portConstraint=eastwest;top=0;left=0;right=0;bottom=0;" vertex="1" parent="kzcDSmeWw7rWdi-7lWra-83">
          <mxGeometry y="69" width="141" height="22" as="geometry" />
        </mxCell>
        <mxCell id="kzcDSmeWw7rWdi-7lWra-91" value="int" style="shape=partialRectangle;connectable=0;fillColor=none;top=0;left=0;bottom=0;right=0;align=left;spacingLeft=2;overflow=hidden;fontSize=11;" vertex="1" parent="kzcDSmeWw7rWdi-7lWra-90">
          <mxGeometry width="30" height="22" as="geometry">
            <mxRectangle width="30" height="22" as="alternateBounds" />
          </mxGeometry>
        </mxCell>
        <mxCell id="kzcDSmeWw7rWdi-7lWra-92" value="Appointment_ID" style="shape=partialRectangle;connectable=0;fillColor=none;top=0;left=0;bottom=0;right=0;align=left;spacingLeft=2;overflow=hidden;fontSize=11;" vertex="1" parent="kzcDSmeWw7rWdi-7lWra-90">
          <mxGeometry x="30" width="111" height="22" as="geometry">
            <mxRectangle width="111" height="22" as="alternateBounds" />
          </mxGeometry>
        </mxCell>
        <mxCell id="kzcDSmeWw7rWdi-7lWra-93" style="shape=tableRow;horizontal=0;startSize=0;swimlaneHead=0;swimlaneBody=0;fillColor=none;collapsible=0;dropTarget=0;points=[[0,0.5],[1,0.5]];portConstraint=eastwest;top=0;left=0;right=0;bottom=0;" vertex="1" parent="kzcDSmeWw7rWdi-7lWra-83">
          <mxGeometry y="91" width="141" height="22" as="geometry" />
        </mxCell>
        <mxCell id="kzcDSmeWw7rWdi-7lWra-94" value="float" style="shape=partialRectangle;connectable=0;fillColor=none;top=0;left=0;bottom=0;right=0;align=left;spacingLeft=2;overflow=hidden;fontSize=11;" vertex="1" parent="kzcDSmeWw7rWdi-7lWra-93">
          <mxGeometry width="30" height="22" as="geometry">
            <mxRectangle width="30" height="22" as="alternateBounds" />
          </mxGeometry>
        </mxCell>
        <mxCell id="kzcDSmeWw7rWdi-7lWra-95" value="Amount" style="shape=partialRectangle;connectable=0;fillColor=none;top=0;left=0;bottom=0;right=0;align=left;spacingLeft=2;overflow=hidden;fontSize=11;" vertex="1" parent="kzcDSmeWw7rWdi-7lWra-93">
          <mxGeometry x="30" width="111" height="22" as="geometry">
            <mxRectangle width="111" height="22" as="alternateBounds" />
          </mxGeometry>
        </mxCell>
        <mxCell id="kzcDSmeWw7rWdi-7lWra-96" value="has appointments" style="curved=1;startArrow=ERmandOne;startSize=10;;endArrow=ERmany;endSize=10;;exitX=1;exitY=0.89;entryX=0.22;entryY=0;rounded=0;" edge="1" parent="1" source="kzcDSmeWw7rWdi-7lWra-1" target="kzcDSmeWw7rWdi-7lWra-40">
          <mxGeometry relative="1" as="geometry">
            <Array as="points">
              <mxPoint x="742" y="204" />
            </Array>
          </mxGeometry>
        </mxCell>
        <mxCell id="kzcDSmeWw7rWdi-7lWra-97" value="consults with" style="curved=1;startArrow=ERmandOne;startSize=10;;endArrow=ERmany;endSize=10;;exitX=0.71;exitY=0;entryX=0.7;entryY=1;rounded=0;" edge="1" parent="1" source="kzcDSmeWw7rWdi-7lWra-17" target="kzcDSmeWw7rWdi-7lWra-40">
          <mxGeometry relative="1" as="geometry">
            <Array as="points">
              <mxPoint x="860" y="438" />
            </Array>
          </mxGeometry>
        </mxCell>
        <mxCell id="kzcDSmeWw7rWdi-7lWra-98" value="for" style="curved=1;startArrow=ERmany;startSize=10;;endArrow=ERmandOne;endSize=10;;exitX=0.7;exitY=0;entryX=1;entryY=0.72;rounded=0;" edge="1" parent="1" source="kzcDSmeWw7rWdi-7lWra-40" target="kzcDSmeWw7rWdi-7lWra-1">
          <mxGeometry relative="1" as="geometry">
            <Array as="points">
              <mxPoint x="860" y="204" />
            </Array>
          </mxGeometry>
        </mxCell>
        <mxCell id="kzcDSmeWw7rWdi-7lWra-99" value="by" style="curved=1;startArrow=ERmany;startSize=10;;endArrow=ERmandOne;endSize=10;;exitX=0.29;exitY=1;entryX=0.28;entryY=0;rounded=0;" edge="1" parent="1" source="kzcDSmeWw7rWdi-7lWra-40" target="kzcDSmeWw7rWdi-7lWra-17">
          <mxGeometry relative="1" as="geometry">
            <Array as="points">
              <mxPoint x="760" y="438" />
            </Array>
          </mxGeometry>
        </mxCell>
        <mxCell id="kzcDSmeWw7rWdi-7lWra-100" value="has rooms" style="curved=1;startArrow=ERmandOne;startSize=10;;endArrow=ERmany;endSize=10;;exitX=0.59;exitY=1;entryX=0.36;entryY=0;rounded=0;" edge="1" parent="1" source="kzcDSmeWw7rWdi-7lWra-56" target="kzcDSmeWw7rWdi-7lWra-63">
          <mxGeometry relative="1" as="geometry">
            <Array as="points">
              <mxPoint x="175" y="204" />
            </Array>
          </mxGeometry>
        </mxCell>
        <mxCell id="kzcDSmeWw7rWdi-7lWra-101" value="belongs to" style="curved=1;startArrow=ERmany;startSize=10;;endArrow=ERmandOne;endSize=10;;exitX=0.99;exitY=0;entryX=1;entryY=0.94;rounded=0;" edge="1" parent="1" source="kzcDSmeWw7rWdi-7lWra-63" target="kzcDSmeWw7rWdi-7lWra-56">
          <mxGeometry relative="1" as="geometry">
            <Array as="points">
              <mxPoint x="404" y="204" />
            </Array>
          </mxGeometry>
        </mxCell>
        <mxCell id="kzcDSmeWw7rWdi-7lWra-102" value="is prescribed" style="curved=1;startArrow=ERmany;startSize=10;;endArrow=ERmany;endSize=10;;exitX=0.42;exitY=1;entryX=0.5;entryY=0;rounded=0;" edge="1" parent="1" source="kzcDSmeWw7rWdi-7lWra-1" target="kzcDSmeWw7rWdi-7lWra-73">
          <mxGeometry relative="1" as="geometry">
            <Array as="points">
              <mxPoint x="573" y="204" />
            </Array>
          </mxGeometry>
        </mxCell>
        <mxCell id="kzcDSmeWw7rWdi-7lWra-103" value="is billed for" style="curved=1;startArrow=ERmandOne;startSize=10;;endArrow=ERmany;endSize=10;;exitX=0;exitY=0.61;entryX=0.31;entryY=0;rounded=0;" edge="1" parent="1" source="kzcDSmeWw7rWdi-7lWra-1" target="kzcDSmeWw7rWdi-7lWra-83">
          <mxGeometry relative="1" as="geometry">
            <Array as="points">
              <mxPoint x="40" y="204" />
              <mxPoint x="40" y="438" />
            </Array>
          </mxGeometry>
        </mxCell>
        <mxCell id="kzcDSmeWw7rWdi-7lWra-104" value="generates" style="curved=1;startArrow=ERmandOne;startSize=10;;endArrow=ERmandOne;endSize=10;;exitX=0;exitY=0.68;entryX=1;entryY=0.33;rounded=0;" edge="1" parent="1" source="kzcDSmeWw7rWdi-7lWra-40" target="kzcDSmeWw7rWdi-7lWra-83">
          <mxGeometry relative="1" as="geometry">
            <Array as="points">
              <mxPoint x="473" y="438" />
            </Array>
          </mxGeometry>
        </mxCell>
      </root>
    </mxGraphModel>
  </diagram>
  <diagram id="lr6se63EApV4_2GvbFE-" name="Page-2">
    <mxGraphModel dx="1114" dy="566" grid="1" gridSize="10" guides="1" tooltips="1" connect="1" arrows="1" fold="1" page="1" pageScale="1" pageWidth="827" pageHeight="1169" math="0" shadow="0">
      <root>
        <mxCell id="0" />
        <mxCell id="1" parent="0" />
        <mxCell id="JY9WyuNEaxfR97du8TbV-1" value="Hospital Management System Use Cases" style="whiteSpace=wrap;strokeWidth=2;" vertex="1" parent="1">
          <mxGeometry x="20" y="127" width="2081" height="99" as="geometry" />
        </mxCell>
        <mxCell id="JY9WyuNEaxfR97du8TbV-2" value="Patient" style="rounded=1;whiteSpace=wrap;arcSize=50;strokeWidth=2;" vertex="1" parent="1">
          <mxGeometry x="1754" y="20" width="75" height="34" as="geometry" />
        </mxCell>
        <mxCell id="JY9WyuNEaxfR97du8TbV-3" value="Doctor" style="rounded=1;whiteSpace=wrap;arcSize=50;strokeWidth=2;" vertex="1" parent="1">
          <mxGeometry x="193" y="20" width="72" height="34" as="geometry" />
        </mxCell>
        <mxCell id="JY9WyuNEaxfR97du8TbV-4" value="Nurse" style="rounded=1;whiteSpace=wrap;arcSize=50;strokeWidth=2;" vertex="1" parent="1">
          <mxGeometry x="562" y="20" width="64" height="34" as="geometry" />
        </mxCell>
        <mxCell id="JY9WyuNEaxfR97du8TbV-5" value="Administrator" style="rounded=1;whiteSpace=wrap;arcSize=50;strokeWidth=2;" vertex="1" parent="1">
          <mxGeometry x="1135" y="20" width="123" height="34" as="geometry" />
        </mxCell>
        <mxCell id="JY9WyuNEaxfR97du8TbV-6" value="Register Patient" style="rounded=1;arcSize=40;strokeWidth=2" vertex="1" parent="1">
          <mxGeometry x="914" y="152" width="145" height="49" as="geometry" />
        </mxCell>
        <mxCell id="JY9WyuNEaxfR97du8TbV-7" value="Schedule Appointment" style="rounded=1;arcSize=40;strokeWidth=2" vertex="1" parent="1">
          <mxGeometry x="1509" y="152" width="191" height="49" as="geometry" />
        </mxCell>
        <mxCell id="JY9WyuNEaxfR97du8TbV-8" value="View Appointment Schedule" style="rounded=1;arcSize=40;strokeWidth=2" vertex="1" parent="1">
          <mxGeometry x="55" y="152" width="231" height="49" as="geometry" />
        </mxCell>
        <mxCell id="JY9WyuNEaxfR97du8TbV-9" value="Admit Patient" style="rounded=1;arcSize=40;strokeWidth=2" vertex="1" parent="1">
          <mxGeometry x="734" y="152" width="130" height="49" as="geometry" />
        </mxCell>
        <mxCell id="JY9WyuNEaxfR97du8TbV-10" value="Assign Room" style="rounded=1;arcSize=40;strokeWidth=2" vertex="1" parent="1">
          <mxGeometry x="336" y="152" width="119" height="49" as="geometry" />
        </mxCell>
        <mxCell id="JY9WyuNEaxfR97du8TbV-11" value="Prescribe Medication" style="rounded=1;arcSize=40;strokeWidth=2" vertex="1" parent="1">
          <mxGeometry x="505" y="152" width="179" height="49" as="geometry" />
        </mxCell>
        <mxCell id="JY9WyuNEaxfR97du8TbV-12" value="Generate Bill" style="rounded=1;arcSize=40;strokeWidth=2" vertex="1" parent="1">
          <mxGeometry x="1334" y="152" width="125" height="49" as="geometry" />
        </mxCell>
        <mxCell id="JY9WyuNEaxfR97du8TbV-13" value="Pay Bill" style="rounded=1;arcSize=40;strokeWidth=2" vertex="1" parent="1">
          <mxGeometry x="1751" y="152" width="83" height="49" as="geometry" />
        </mxCell>
        <mxCell id="JY9WyuNEaxfR97du8TbV-14" value="View Patient Records" style="rounded=1;arcSize=40;strokeWidth=2" vertex="1" parent="1">
          <mxGeometry x="1883" y="152" width="182" height="49" as="geometry" />
        </mxCell>
        <mxCell id="JY9WyuNEaxfR97du8TbV-15" value="Manage Department" style="rounded=1;arcSize=40;strokeWidth=2" vertex="1" parent="1">
          <mxGeometry x="1109" y="152" width="176" height="49" as="geometry" />
        </mxCell>
        <mxCell id="JY9WyuNEaxfR97du8TbV-16" value="Schedules" style="curved=1;startArrow=none;endArrow=block;exitX=0;exitY=0.82;entryX=0.5;entryY=0;rounded=0;" edge="1" parent="1" source="JY9WyuNEaxfR97du8TbV-2" target="JY9WyuNEaxfR97du8TbV-7">
          <mxGeometry relative="1" as="geometry">
            <Array as="points">
              <mxPoint x="1605" y="91" />
            </Array>
          </mxGeometry>
        </mxCell>
        <mxCell id="JY9WyuNEaxfR97du8TbV-17" value="Pays" style="curved=1;startArrow=none;endArrow=block;exitX=0.51;exitY=1;entryX=0.49;entryY=0;rounded=0;" edge="1" parent="1" source="JY9WyuNEaxfR97du8TbV-2" target="JY9WyuNEaxfR97du8TbV-13">
          <mxGeometry relative="1" as="geometry">
            <Array as="points" />
          </mxGeometry>
        </mxCell>
        <mxCell id="JY9WyuNEaxfR97du8TbV-18" value="Views Records" style="curved=1;startArrow=none;endArrow=block;exitX=1.01;exitY=0.83;entryX=0.5;entryY=0;rounded=0;" edge="1" parent="1" source="JY9WyuNEaxfR97du8TbV-2" target="JY9WyuNEaxfR97du8TbV-14">
          <mxGeometry relative="1" as="geometry">
            <Array as="points">
              <mxPoint x="1974" y="91" />
            </Array>
          </mxGeometry>
        </mxCell>
        <mxCell id="JY9WyuNEaxfR97du8TbV-19" value="Views Schedule" style="curved=1;startArrow=none;endArrow=block;exitX=0.24;exitY=1;entryX=0.5;entryY=0;rounded=0;" edge="1" parent="1" source="JY9WyuNEaxfR97du8TbV-3" target="JY9WyuNEaxfR97du8TbV-8">
          <mxGeometry relative="1" as="geometry">
            <Array as="points">
              <mxPoint x="171" y="91" />
            </Array>
          </mxGeometry>
        </mxCell>
        <mxCell id="JY9WyuNEaxfR97du8TbV-20" value="Prescribes" style="curved=1;startArrow=none;endArrow=block;exitX=0.75;exitY=1;entryX=0;entryY=0.21;rounded=0;" edge="1" parent="1" source="JY9WyuNEaxfR97du8TbV-3" target="JY9WyuNEaxfR97du8TbV-11">
          <mxGeometry relative="1" as="geometry">
            <Array as="points">
              <mxPoint x="287" y="91" />
              <mxPoint x="287" y="127" />
            </Array>
          </mxGeometry>
        </mxCell>
        <mxCell id="JY9WyuNEaxfR97du8TbV-21" value="Assigns Room" style="curved=1;startArrow=none;endArrow=block;exitX=0;exitY=0.75;entryX=0.5;entryY=0;rounded=0;" edge="1" parent="1" source="JY9WyuNEaxfR97du8TbV-4" target="JY9WyuNEaxfR97du8TbV-10">
          <mxGeometry relative="1" as="geometry">
            <Array as="points">
              <mxPoint x="395" y="91" />
            </Array>
          </mxGeometry>
        </mxCell>
        <mxCell id="JY9WyuNEaxfR97du8TbV-22" value="Administers" style="curved=1;startArrow=none;endArrow=block;exitX=0.51;exitY=1;entryX=0.5;entryY=0;rounded=0;" edge="1" parent="1" source="JY9WyuNEaxfR97du8TbV-4" target="JY9WyuNEaxfR97du8TbV-11">
          <mxGeometry relative="1" as="geometry">
            <Array as="points" />
          </mxGeometry>
        </mxCell>
        <mxCell id="JY9WyuNEaxfR97du8TbV-23" value="Registers" style="curved=1;startArrow=none;endArrow=block;exitX=0;exitY=0.96;entryX=0.5;entryY=0;rounded=0;" edge="1" parent="1" source="JY9WyuNEaxfR97du8TbV-5" target="JY9WyuNEaxfR97du8TbV-6">
          <mxGeometry relative="1" as="geometry">
            <Array as="points">
              <mxPoint x="987" y="91" />
            </Array>
          </mxGeometry>
        </mxCell>
        <mxCell id="JY9WyuNEaxfR97du8TbV-24" value="Manages" style="curved=1;startArrow=none;endArrow=block;exitX=0.5;exitY=1;entryX=0.5;entryY=0;rounded=0;" edge="1" parent="1" source="JY9WyuNEaxfR97du8TbV-5" target="JY9WyuNEaxfR97du8TbV-15">
          <mxGeometry relative="1" as="geometry">
            <Array as="points" />
          </mxGeometry>
        </mxCell>
        <mxCell id="JY9WyuNEaxfR97du8TbV-25" value="Generates" style="curved=1;startArrow=none;endArrow=block;exitX=1;exitY=0.98;entryX=0.5;entryY=0;rounded=0;" edge="1" parent="1" source="JY9WyuNEaxfR97du8TbV-5" target="JY9WyuNEaxfR97du8TbV-12">
          <mxGeometry relative="1" as="geometry">
            <Array as="points">
              <mxPoint x="1397" y="91" />
            </Array>
          </mxGeometry>
        </mxCell>
      </root>
    </mxGraphModel>
  </diagram>
</mxfile>
